<?xml version="1.0" encoding="utf-8"?>
<!-- Generator: Adobe Illustrator 17.1.0, SVG Export Plug-In . SVG Version: 6.00 Build 0)  -->
<!DOCTYPE svg PUBLIC "-//W3C//DTD SVG 1.1//EN" "http://www.w3.org/Graphics/SVG/1.1/DTD/svg11.dtd">
<svg version="1.1" id="Layer_1" xmlns="http://www.w3.org/2000/svg" xmlns:xlink="http://www.w3.org/1999/xlink" x="0px" y="0px"
	 viewBox="0 0 680 300" enable-background="new 0 0 680 300" xml:space="preserve">
<linearGradient id="SVGID_1_" gradientUnits="userSpaceOnUse" x1="454.6426" y1="150.1988" x2="665.6485" y2="150.1988">
	<stop  offset="0" style="stop-color:#71CAEE"/>
	<stop  offset="0.2" style="stop-color:#8881B8"/>
	<stop  offset="0.4" style="stop-color:#EC98BA"/>
	<stop  offset="0.6" style="stop-color:#EE9579"/>
	<stop  offset="0.8" style="stop-color:#FCF099"/>
	<stop  offset="1" style="stop-color:#83C59B"/>
</linearGradient>
<path fill="url(#SVGID_1_)" stroke="#000000" stroke-width="1.7584" stroke-miterlimit="10" d="M454.6,9.5v113.4
	c0.3-0.7,0.5-1.5,0.9-2.1c0.6-0.8,1-1.5,1.4-2.4c0.9-1.8,1.9-3.6,3.5-4.9c2.8-2.4,6.3-1.2,9,0.7c3.3,2.3,6.2,5.9,10.3,2.5
	c3.3-2.7,4-8,7-10.6c-2.2-2.9-0.2-4.7,0.6-7.4c1-3.2,0.8-7.1,1.4-10.1c0.7-3.2,0.7-6.4,1.7-9.3c1.4-4,3.3-8.1,4.7-11.8
	c2.5-6.4,6.9-11.5,12.2-15.6c3.5-2.8,7.2-4,11.1-5.6c2.7-1.1,5.4-3.6,8-4.1c5.6-1,14.1-1.7,18.5,0.5c6.7,3.3,11.4,7.5,17.7,11.2
	c3,1.8,6,3.8,8.6,6.2c1.4,1.3,2.5,2.7,3.8,4.1c1.1,1.2,2.4,2.3,3.2,3.8c0.3,0.5,0.5,1,0.8,1.5c0.7,1,1.1,2.1,1.6,3.3
	c1.1,2.3,2.1,4.7,2.4,7.3c0.3,2.2,0.9,4.2,0.4,6.5c-0.5,2.3-1.6,4.3-3.4,5.9c-1.9,1.6-1.6,3.3-2.1,5.7c-0.3,1.4-0.9,2.7-1.5,4
	c-0.5,1-1.4,2-1.6,3.1c-0.3,1.5-0.1,3-0.5,4.5c-0.4,1.5-1.1,2.9-1.9,4.2c-0.9,1.6-2.3,2.7-3.2,4.2c-1,1.7-0.9,4.1-0.8,6
	c0.1,3,1.3,6.3,0.3,9.3c-0.7,2.1-3.7,2.3-5.5,1.8c-2-0.5-3-0.9-3.3,1.5c-0.2,1.7-1,2.7-2.5,3.6c-0.8,0.5-2.3,0.1-3.1,0.8
	c-1.1,0.9-0.3,1.7-1,2.8c-1.2,1.7-3.1,3-5.1,3.1c-1.6,0.1-2,0.8-3,1.7c-3.6,3.2-4.4,8.1-10,8.9c-3.2,0.5-8-0.9-10.8-3.2
	c-1.2,5.6-8.8,6.7-11.8,10.7c-1.1,1.5-2.6,6.5-3.1,8.2c-0.8,2.5-0.5,6.3,0.5,8.6c1.3,3.1,3.7,4.2,5.7,6.7c1.6,1.9,2.3,4.8,3.8,6.8
	c2.1,2.9,2.4,4.4,2,8.1c-0.5,4.8,0.8,4.7,3.8,7.8c2.7,2.7,3.7,6.9,3.9,10.8c0.2,3.1-0.1,5.4,1,8.4c0.8,2.2,1.6,3.7,1.8,6
	c0.4,4.8-0.8,8.8,1.6,13.1c1.1,2,2.1,3.4,2.9,5.6c0.5,1.4,0.9,3.6,2.2,4.9c1.9-1.2,3.7-4.3,6-5.2c3.2-1.3,6.1,1.1,7.4-3.2
	c0.4-1.3-0.5-3,0-4.2c0.5-1.4,2.5-2.7,3.6-3.7c2-1.8,4.5-2.8,6.3-4.7c4.3-4.3,6.5-10.5,10.6-14.8c2.5-2.5,3-5,7.1-4.5
	c1.7,0.2,1.4,1.9,3.3,0.9c0.7-0.4,2-3.6,2.5-4.4c2.3-3.6,5.3-5.1,8.3-8c1.3-1.2,1.6-2.5,3.5-3.4c1.7-0.7,3.6-0.5,5.4-1
	c3.3-0.9,6-3.6,9.4-1.3c1,0.7,1.8,2.2,2.9,3c2.1,1.5,4,3.1,6.4,3.2c2.8,0.1,5.6,0.2,8.5,0.3c1.1,0,2.3,0.1,3.4-0.2
	c2.2-0.6,3.7-3.1,6.3-1.8c0.2,0.1,0.3,0.2,0.5,0.3c1.9,1.2,3.1,3.6,2.9,5.7c-0.5,4.3-6.5,3.8-8,6.9c-0.6,1.2,0.1,2.7-0.2,4
	c-0.6,2.6-0.3,1.5-2.5,3.2c-2.8,2.2-4.2,3.1-4.2,7c0,1.3,0.7,3,0.4,4.2c-0.4,1.5-2.3,2-2.8,3.5c-1.1,2.9,1.1,5.5-1.4,8.2
	c-1.4,1.5-6,3.4-7.7,3.9c-1.6,0.5-3.5,0.2-5,0.9c-2.5,1.1-0.8,0.5-2.4,2.5c-3.7,4.9-9.3,6.9-13.7,11.3c-2.1,2.2-2.6,5.5-5.8,6.5
	c-1.2,1.4-2.3,2.3-3.1,4.3c-0.5,1.2-0.7,2.8-1.6,3.8c-2.6,2.8-7.6,2.5-10.8,4c-1.9,0.9-3.7,2.2-5.4,3.6h96.7V9.5H454.6z"/>
<polyline fill="none" stroke="#000000" stroke-width="0.5275" stroke-miterlimit="10" points="528.3,216.2 571,157.8 567.2,157.8 
	520.2,196.2 "/>
<path fill="none" stroke="#000000" stroke-width="0.5275" stroke-miterlimit="10" d="M568.9,127.9c7.5-1.9,5.1-11,13.4-10.9
	c6,0,9.8-3.6,15.2-0.5c5.5,3.1,8.1,6.3,10,12.1c1.3,3.9,1.5,6.4,5,8.2c3.6,1.8,4.6,2.6,6.9,6.2c0.7-3,3-2.6,4.3-4.5
	c1-1.4,0.9-4.1,2.5-5.5c3.2-2.7,9.9,0.3,11.1,4.4c3.4-1.4,4.8-5.3,8.4-6.4c2.1-0.6,2.3,0.3,4-1.2c1.5-1.4,1.3-3.6,3.2-4.9
	c3.8-2.6,9.1-0.4,13-2"/>
<line fill="none" stroke="#000000" stroke-width="0.5275" stroke-miterlimit="10" x1="666" y1="266.8" x2="632.4" y2="227"/>
<line fill="none" stroke="#000000" stroke-width="0.5275" stroke-miterlimit="10" x1="609.7" y1="201.7" x2="575.3" y2="159.5"/>
<line fill="none" stroke="#000000" stroke-width="0.5275" stroke-miterlimit="10" x1="666" y1="192.6" x2="586.2" y2="159.5"/>
<path fill="none" stroke="#000000" stroke-width="0.5275" stroke-miterlimit="10" d="M455,15.7c3.4-0.2,6.5-1.1,9.9-0.4
	c3.3,0.7,4.5,3.1,7.3,4.5c1.5-4.3,5.2-2.4,7.2-0.3c2.4,2.6,1.9,3.7,2.1,7.4c2.8,0.1,5-0.5,6.8,2c1.4,2,0.5,4.3,1.2,6.5
	c1.9-1.2,2.9-3.8,4.6-5.5c3-2.8,6-2.8,9.7-3c0.4-6.5,2.4-10.4,9.9-10.5c3.8-0.1,8.9,2,11.6,4.8c-2.6-6.3-1.2-12.4,7.3-10.6
	c2,0.4,4.7,1.9,6.3,2.7c2.2,1.1,2.9,1,4.1,3.1c2.1-1.4,6.2-3.7,8.8-2.3c2.8,1.5,3.2,7.6,3.7,10.1c2.9-4.2,7.2-8.8,11.6-10.7
	c2.2-1,5.1-2.9,7.5-3.3"/>
<path fill="none" stroke="#000000" stroke-width="0.5275" stroke-miterlimit="10" d="M453.9,75.1c4.4,0,8.6-0.7,12.7-1
	c4.8-0.3,6.9,4,11.6,4.8c3.3,0.5,5.6,0,8.3-1.1c1.6-0.6,2.7-1.6,4.7-1.7"/>
<path fill="none" stroke="#000000" stroke-width="0.5275" stroke-miterlimit="10" d="M455,79.3c3.2,0,6.5,0.2,9.1,2.2
	c4.1-4.7,10.2,2.8,11.9,5.9c2.4,4.3,1.7,3.1,5.2,1.8c1.9-0.7,3.8-0.7,6.1-0.7"/>
<path fill="none" stroke="#000000" stroke-width="0.5275" stroke-miterlimit="10" d="M454.6,100.8c0,2.9,5.3,3.4,7.7,3.2
	c-1,4.5,8.1,4.1,10.9,3c2.7-1.1,2.4-3,5.7-1.9c2.1,0.7,3.3,2.9,5.6,2.4"/>
<path fill="none" stroke="#000000" stroke-width="0.5275" stroke-miterlimit="10" d="M572.1,59.3c5.7,0,9.6-0.2,14.7-2.4
	c-0.5,3.9,11.4,8.6,13,4.2c-0.3,5.3,8.1,6.1,11.5,4.5c3.3-1.6,5.1-5.9,8.1-7c3.9-1.4,17.3,4.8,19.7,0.8c1.1-1.8-0.4-4.3-2-5.1
	c4.3-1.2,10.5-0.7,13.3-5.2c1.7-2.7,2.2-9.5-1.7-10.6c0.8-4.1,6-6.5,6.3-10.5c0.3-3.5-3-6.2-6-7.1c-1.5-0.4-5.1,0.2-6.3-1.2
	c-0.7-0.8,0.5-2.9-0.1-3.7c-1-1.5-5.5-2.2-7.2-3.3c-1.5-0.9-3.6-2.3-4.7-3.8"/>
<path fill="none" stroke="#000000" stroke-width="0.5275" stroke-miterlimit="10" d="M574.9,109.6c3.9-0.1,7.2-3.7,11.2-1.5
	c0.1-5,0.9-6.6,5.8-8c2.4-0.6,5.4-1.2,7.8-0.5c2.2-3.7,8.5-1.2,11.2,0.1c0.7,0.3,0.9,1.7,1.4,1.9c1.8,0.7,4.4-0.4,6.4,0
	c0.5,0.1,1.7,0.5,2.1,0.5c0.9-0.1,1.6-0.9,2.9-1.1c3-0.5,7.5-0.8,9.6,1.6c2.7-1.8,7.7-3.5,10.4-1c2.9-3.1,3.2-5.4,7.5-6.1
	c2.6-0.4,5.9-0.8,8.4,0.1c0.9-2.1,3.6-3,5.6-2.8"/>
<path fill="none" stroke="#000000" stroke-width="0.5275" stroke-miterlimit="10" d="M572.5,113.8c2.4,0,4.9,0.3,7.3,0.3
	c3,0,5.3-1.4,8-1.3c4.6,0.1,8.5,0.9,12.7,2.6c3.5,1.4,6,1.4,8.9-0.9c2,2.1,4.6,1.5,7,2.2c4.2,1.2,12.6,7.4,16.6,2.1
	c5.1,2,8.5,1.4,13.3,0.7c2.9-0.4,9.4,1.3,9.2-3.5c2.2,0.2,3.8,0.6,5.9-0.7c1.4-0.8,1.8-2.6,3.6-3.3"/>
<path fill="none" stroke="#000000" stroke-width="0.5275" stroke-miterlimit="10" d="M629.1,165.2c-0.8,0-0.9-6.2-0.2-6.8
	c0.4-0.4,1.1,0,1.4-0.3c0.2-0.2,0.5-0.9,0.6-1.2c0.5-0.9,1.2-1.8,2.1-2.1c0.9-0.3,2.1-0.2,3-0.2c2,0,4.3-0.3,6.2,0.1
	c2.3,0.5,2.9,2.8,4.7,3.5c1.1,0.5,1.3,0.7,1.4,2c0.1,1,0.2,2.1,0.2,2.9c0.1,0.7,0.2,2-0.1,2.6c-0.3,0.6-2.1,0.9-2.7,0.5
	c-0.4-0.3,0-0.8-0.4-1.1c-0.4-0.3-1.2-0.2-1.7-0.2c-0.8,0-1.6-0.1-2.4-0.1c-0.8,0-1.5,0-2.3,0c-0.8,0-1.6-0.1-2.5-0.1
	c0.2,1.1-1.9,1.2-2.7,0.9c-0.9-0.4-1-2-2.4-1.7C630.9,165.3,630.6,165.3,629.1,165.2z"/>
<path fill="none" stroke="#000000" stroke-width="0.5275" stroke-miterlimit="10" d="M628.4,161.2c-0.1-0.5,0.4-1.4,1-1.2
	c0.6,0.2,0.5,1.2,0.5,1.7c0.1,1.3,0.1,2.5-0.8,3.4"/>
<path fill="none" stroke="#000000" stroke-width="0.5275" stroke-miterlimit="10" d="M634.4,164.3c0,0.6-0.8,1.5-1.2,0.7
	c-0.2-0.4-0.1-1.1-0.1-1.6c0-0.5,0.1-1,0.1-1.6c0.1-0.4,0-1.2,0.5-1.3c0.5-0.1,0.5,0.5,0.5,0.9C634.4,162.4,634.5,163.3,634.4,164.3
	z"/>
<path fill="none" stroke="#000000" stroke-width="0.5275" stroke-miterlimit="10" d="M637.4,160.5c-0.1-1.3-1.3-1.2-1.7-0.1
	C635.2,161.7,637.5,161.9,637.4,160.5z"/>
<path fill="none" stroke="#000000" stroke-width="0.5275" stroke-miterlimit="10" d="M647.4,160.2c0.6,0.2,0.7,1.1,0.3,1.5
	c-0.4,0.4-1,0.4-1.2-0.2C646.5,160.9,646.7,160,647.4,160.2z"/>
<path fill="none" stroke="#000000" stroke-width="0.5275" stroke-miterlimit="10" d="M640.2,158.2c-0.6,0-1.1,0.1-1.7,0.1
	c-0.7,0-1.4,0-2,0c-0.5,0-1.8,0.2-2.1-0.3c-0.2-0.3,0-0.9,0-1.2c0.1-0.4,0.2-0.7,0.2-1.1c1.7,0,3.4,0,5.1,0c0.7,0,1.5,0,2.2,0
	c0.6,0,0.9,0.3,1.4,0.6c0.5,0.3,1.7,1.3,1.5,2.1c-0.2,0.6-1.1,0.2-1.5,0.1c-0.8-0.1-1.7-0.1-2.5-0.1
	C640.6,158.2,640.4,158.2,640.2,158.2z"/>
<path fill="none" stroke="#000000" stroke-width="0.5275" stroke-miterlimit="10" d="M571,159.5c0.4,0.5,44.1-1,44.1-1l13.3,2.1"/>
<line fill="none" stroke="#000000" stroke-width="0.5275" stroke-miterlimit="10" x1="648.7" y1="163.1" x2="665.6" y2="166"/>
<polyline fill="none" stroke="#000000" stroke-width="0.5275" stroke-miterlimit="10" points="571,157.8 571,160.6 530.4,230.5 "/>
<g>
	<g>
		<polygon fill="#FFFFFF" points="604.9,223.2 602.4,218.4 629.7,193.3 642.3,193.3 644.1,198.7 616.6,224.5 		"/>
		<path d="M641.6,194.3l1.4,4.2l-26.8,25.1l-10.8-1.2l-1.9-3.7l26.6-24.4H641.6 M643,192.4h-1.3h-11.5h-0.7l-0.5,0.5l-26.6,24.4
			l-1,1l0.7,1.3l1.9,3.7l0.5,0.9l1,0.1l10.8,1.2l0.8,0.1l0.6-0.6l26.8-25.1l0.9-0.8l-0.4-1.1l-1.4-4.2L643,192.4L643,192.4z"/>
	</g>
	<polyline fill="none" stroke="#000000" stroke-width="0.5275" stroke-miterlimit="10" points="603.5,218.6 615.2,219.5 
		641.6,194.3 	"/>
	<polygon fill="none" stroke="#000000" stroke-width="0.5275" stroke-miterlimit="10" points="607.3,216.8 630.1,195.6 637.2,196 
		614.5,217.5 	"/>
</g>
<g>
	<path fill="#FFFFFF" stroke="#000000" stroke-width="1.7584" stroke-miterlimit="10" d="M640.3,207.3c-0.2-0.1-0.3-0.2-0.5-0.3
		c-2.6-1.2-4.1,1.3-6.3,1.8c-1.1,0.3-2.2,0.2-3.4,0.2c-2.8-0.1-5.6-0.2-8.5-0.3c-2.5-0.1-4.4-1.7-6.4-3.2c-1-0.8-1.9-2.3-2.9-3
		c-3.4-2.3-6.1,0.3-9.4,1.3c-1.7,0.5-3.7,0.3-5.4,1c-1.9,0.8-2.2,2.2-3.5,3.4c-3,2.9-6,4.4-8.3,8c-0.5,0.8-1.8,4-2.5,4.4
		c-1.9,1-1.6-0.7-3.3-0.9c-4.1-0.4-4.7,2-7.1,4.5c-4.1,4.3-6.3,10.5-10.6,14.8c-1.8,1.9-4.4,2.9-6.3,4.7c-1.1,1-3.1,2.3-3.6,3.7
		c-0.5,1.2,0.4,3,0,4.2c-1.3,4.4-4.1,2-7.4,3.2c-2.2,0.9-4.1,3.9-6,5.2c-1.2-1.3-1.7-3.4-2.2-4.9c-0.8-2.2-1.8-3.6-2.9-5.6
		c-2.4-4.2-1.2-8.3-1.6-13.1c-0.2-2.4-0.9-3.9-1.8-6c-1.1-3-0.9-5.3-1-8.4c-0.2-4-1.3-8.1-3.9-10.8c-3.1-3.1-4.3-3-3.8-7.8
		c0.4-3.7,0-5.2-2-8.1c-1.5-2.1-2.2-5-3.8-6.8c-2-2.5-4.4-3.5-5.7-6.7c-1-2.4-1.2-6.1-0.5-8.6c0.5-1.7,2-6.7,3.1-8.2
		c2.9-4,10.6-5,11.8-10.7c2.8,2.3,7.6,3.7,10.8,3.2c5.5-0.8,6.3-5.8,10-8.9c1.1-0.9,1.4-1.7,3-1.7c2-0.1,4-1.4,5.1-3.1
		c0.7-1.1,0-1.9,1-2.8c0.8-0.6,2.3-0.3,3.1-0.8c1.5-0.9,2.2-1.9,2.5-3.6c0.3-2.5,1.4-2.1,3.3-1.5c1.8,0.5,4.8,0.3,5.5-1.8
		c1-3-0.2-6.3-0.3-9.3c-0.1-1.9-0.2-4.3,0.8-6c0.9-1.5,2.3-2.6,3.2-4.2c0.8-1.3,1.5-2.7,1.9-4.2c0.4-1.5,0.1-3,0.5-4.5
		c0.3-1.1,1.1-2.1,1.6-3.1c0.6-1.3,1.2-2.6,1.5-4c0.5-2.4,0.2-4.1,2.1-5.7c1.7-1.5,2.9-3.6,3.4-5.9c0.5-2.2-0.1-4.3-0.4-6.5
		c-0.3-2.6-1.3-5-2.4-7.3c-0.6-1.2-0.9-2.2-1.6-3.3c-0.3-0.5-0.6-1-0.8-1.5c-0.8-1.5-2-2.6-3.2-3.8c-1.3-1.4-2.4-2.8-3.8-4.1
		c-2.6-2.4-5.5-4.4-8.6-6.2c-6.2-3.7-11-7.9-17.7-11.2c-4.4-2.2-13-1.5-18.5-0.5c-2.6,0.5-5.3,3-8,4.1c-3.9,1.7-7.5,2.9-11.1,5.6
		c-5.3,4.1-9.7,9.2-12.2,15.6c-1.5,3.8-3.4,7.8-4.7,11.8c-1,2.9-1,6.1-1.7,9.3c-0.6,3-0.4,7-1.4,10.1c-0.9,2.7-2.9,4.5-0.6,7.4
		c-3,2.6-3.7,7.8-7,10.6c-4.1,3.4-7.1-0.2-10.3-2.5c-2.7-1.9-6.2-3.1-9-0.7c-1.6,1.3-2.6,3.1-3.5,4.9c-0.4,0.9-0.8,1.6-1.4,2.4
		c-0.4,0.6-0.7,1.4-0.9,2.1v168h114.3c1.7-1.4,3.5-2.7,5.4-3.6c3.3-1.6,8.2-1.3,10.8-4c0.9-1,1-2.6,1.6-3.8c0.8-2,1.8-2.9,3.1-4.3
		c3.1-1,3.6-4.4,5.8-6.5c4.4-4.5,10.1-6.4,13.7-11.3c1.5-2-0.1-1.4,2.4-2.5c1.5-0.7,3.4-0.4,5-0.9c1.7-0.5,6.3-2.4,7.7-3.9
		c2.4-2.6,0.3-5.3,1.4-8.2c0.6-1.5,2.4-2,2.8-3.5c0.4-1.2-0.4-2.9-0.4-4.2c0-3.9,1.4-4.8,4.2-7c2.1-1.7,1.9-0.5,2.5-3.2
		c0.3-1.3-0.3-2.8,0.2-4c1.6-3.2,7.6-2.7,8-6.9C643.4,210.9,642.2,208.4,640.3,207.3z"/>
	<path fill="none" stroke="#000000" stroke-width="0.5275" stroke-miterlimit="10" d="M574.6,105.1c-2.7-0.4-5,3.1-6.6,4.8
		c-2,2.1-4.2,3.8-5.5,6.2c-0.5,0.9-2.2,5.3,0.1,5.4c0.8,0,1.7-0.9,2.4-1.2c1-0.4,1.7-0.8,2.5-1.4c2.1-1.5,4-3,4.8-5.5
		c0.9-0.4,1.3-1.1,1.6-2.1c0.3-1.1,0.8-2.1,1.1-3.1c0.3-1.6,0-3.2-1.9-3"/>
	<path fill="none" stroke="#000000" stroke-width="0.5275" stroke-miterlimit="10" d="M569.9,107c-1.8,0.2-2.2-0.9-3.1-2
		c-0.6-0.7-1.6-1.4-2.3-2c-3.2-2.7-26-19.5-27.8-20.4c-1.2-0.6-2.6-1.6-3.8-1.8c-1-0.2-2.2,0-3.2,0"/>
	<path fill="none" stroke="#000000" stroke-width="0.5275" stroke-miterlimit="10" d="M530.6,85.3c0.2-2.2-2.2-5.7-3.6-7.2
		c-1.1-1.2-2.3-2.1-3.9-2c-1.1,0-2.1,0.1-3.2,0.6c-5,2.3-6.9,7.3-6.9,12.8c0,1.7-0.2,3.5,0,5.1c0.3,1.9,1.1,3.5,1.5,5.5
		c0.5,2.2,1.6,3.1,3.1,4.5c1.3,1.2,2.2,1.2,4,1.2"/>
	<path fill="none" stroke="#000000" stroke-width="0.5275" stroke-miterlimit="10" d="M486.6,105.8c3.2,2,7.5,0.7,10.7-0.7
		c1-0.5,2.3-0.7,3.3-1.2c1.1-0.6,2-2,2.7-3c1.1-1.7,1.2-3.4,2.5-5c1.2-1.4,2.1-3.2,3.4-4.5c0.9-0.9,2.5-2.8,3.8-2.8"/>
	<path fill="none" stroke="#000000" stroke-width="0.5275" stroke-miterlimit="10" d="M530.6,83.4c0.9,0.3,2.6,0.8,3.4,1.7
		c0.8,0.9,1.3,3.1,1.4,4.3c0.1,1,0.1,2.2,0.1,3.2c0.1,1.6-0.4,2.7-0.7,4.2c-0.2,1-0.1,2.3-0.6,3.2c-0.5,1-1.5,1.5-0.4,2.6
		c0.8,0.8,2.6,0.9,3.6,1.2c0.8,0.2,1.6,0.5,2.4,0.8c1.3-1.3,1.5-3.3,2.6-4.7c0.7-0.9,1.5-1.7,2.1-2.6c0.8-1.3,0.9-3,2-4.2
		c1.4-1.6,3-3.7,5.3-3.8c1.5-0.1,2.7-0.4,4-0.7c0.3-0.1,1,0,1.4-0.2c1.1-0.6,0.4-1,0-2.1c-0.6-1.7-0.6-3.9-0.1-5.6
		c0.8-2.5,2.3-4.6,3.5-6.9c0.8-1.6,1.6-3.1,2.8-4.3c0.6-0.6,1.6-2,2.3-2.2c1.3-0.4,2.7,0.4,3.9,0.8c2.5,0.8,5.1,3.3,6.4,5.6
		c0.3,0.6,0.6,1.2,1,1.7c0.5,0.8,0.5,1.1,0.9,2.1c0.3,0.7,0.7,1.2,0.9,1.9c0.2,1,0.3,2,0.5,3.1c0.5,2.8,0.4,6.2,0.1,9.1
		c-0.1,0.7-0.2,1.3-0.3,2"/>
	<path fill="none" stroke="#000000" stroke-width="0.5275" stroke-miterlimit="10" d="M454.4,133.8c7.5,3.2,14.6,9.7,21,14.8
		c5.2,4.1,11.3,8,16,12.3c-0.1-5,2.7-10.1,5.2-14.3c1.8-3.1,5.3-4.5,6.9-7.6"/>
	<path fill="none" stroke="#000000" stroke-width="0.5275" stroke-miterlimit="10" d="M474.8,117.8c1.3,1.2,3.2,1.8,4.7,2.9
		c3.3,2.4,6.2,5.3,9.5,7.6c4.1,2.7,9.1,5.3,12.4,8.9c2,2.2,3.7,4.6,6.6,5.9c2.9,1.3,5.8,1.1,8.7,1.8c2.7,0.7,3.4,2.2,4.7,4.4
		c1,1.7,2.8,3.1,3.4,5.1"/>
	<path fill="none" stroke="#000000" stroke-width="0.5275" stroke-miterlimit="10" d="M513.3,117.5c0,2.9-2,5.7-2.6,8.5
		c-0.4,1.9-0.6,4.4-0.4,6.3c0.2,2.6,2.3,4.8,3.6,6.9c2,3.1,6.5,5.8,7.3,9.4"/>
	<path fill="none" stroke="#000000" stroke-width="0.5275" stroke-miterlimit="10" d="M500.8,211.7c0.5-2.9-1.6-6.4-0.6-9.2
		c1.7-4.5,5.9,1.3,7.6,3.2c1.7,1.9,1.9,4.9,2.3,7.5c0.8,5.1,2.1,13.2,0.6,18.3c-1.3,4.3-6.8,5.2-10.6,6.3c-4.3,1.2-9,5.3-13.7,3.1
		c-4.7-2.3,0.2-12.8-3.9-16.8c3.5-0.8,6.6-3,9.8-4.5c1.2-0.5,2.7-0.7,3.8-1.3C498.4,216.8,500.4,214.2,500.8,211.7z"/>
	<path fill="none" stroke="#000000" stroke-width="0.5275" stroke-miterlimit="10" d="M484.5,290c4.7,0,6.1-1.6,9.4-4.5
		c3.8-3.4,8.5-5.4,13.6-6.4c6.2-1.1,10.4-4.7,15.5-8.7c3.4-2.7,7.1-3.9,10.7-6.2c1.6-1.1,2.7-2,4-3.5c0.9-1,2-2.8,3.4-2.7"/>
	<path fill="none" stroke="#000000" stroke-width="0.5275" stroke-miterlimit="10" d="M602,210.9c7.9,0,15-1.1,22.7-2.5"/>
	<path fill="none" stroke="#000000" stroke-width="0.5275" stroke-miterlimit="10" d="M560.8,134.9c-2.5,0-5.2-1.1-7.6-0.9
		c-2.6,0.2-5.1,2.9-6.6,5.1c-1.3,1.9,0,3.1,2.2,1.9c2-1.1,1.9-4.3,4.8-4.2c1.9,0.1,2.6,1.9,4.8,1.6"/>
	<path fill="none" stroke="#000000" stroke-width="0.5275" stroke-miterlimit="10" d="M560.7,240.4c4.9-0.2,6.7,3.4,10.6,5.6
		c4.4,2.4,7.8,7.5,10.7,11.5c2.5,3.4,3.4,8.1,5.2,11.8c0.7,1.4,0.9,2.6,1.4,4c0.3,0.8,0.9,1.2,1.1,2.1"/>
	<path fill="none" stroke="#000000" stroke-width="0.5275" stroke-miterlimit="10" d="M581.6,220.9c3.4,1.5,6.1,4.4,9.1,6.7
		c3.4,2.6,6.8,5.4,9.7,8.6c2.2,2.4,3.6,5.4,5.6,7.9c1.2,1.5,1.8,2.9,2.6,4.6c0.9,1.8,1.6,4.7,1.4,6.9"/>
	<path fill="none" stroke="#000000" stroke-width="0.5275" stroke-miterlimit="10" d="M628.5,220.5c2.4,1.1,5.1-0.2,7-1.1"/>
	<path fill="none" stroke="#000000" stroke-width="0.5275" stroke-miterlimit="10" d="M496.5,281.9c-4-5.7-7.2-11.7-9.8-17.8
		c-1.8-4.1-4-8.4-4.6-12.8c-0.8-5.7,0.4-11.6-0.7-17.3c-1.5-7.9-4.6-15.4-4.6-23.9c0-5-1.1-13.5,1.4-17.5"/>
</g>
<g>
	<path fill="#FFFFFF" stroke="#000000" stroke-width="1.7584" stroke-miterlimit="10" d="M233.2,9.5v113.4c0.3-0.7,0.5-1.5,0.9-2.1
		c0.6-0.8,1-1.5,1.4-2.4c0.9-1.8,1.9-3.6,3.5-4.9c2.8-2.4,6.3-1.2,9,0.7c3.3,2.3,6.2,5.9,10.3,2.5c3.3-2.7,4-8,7-10.6
		c-2.2-2.9-0.2-4.7,0.6-7.4c1-3.2,0.8-7.1,1.4-10.1c0.7-3.2,0.7-6.4,1.7-9.3c1.4-4,3.3-8.1,4.7-11.8c2.5-6.4,6.9-11.5,12.2-15.6
		c3.5-2.8,7.2-4,11.1-5.6c2.7-1.1,5.4-3.6,8-4.1c5.6-1,14.1-1.7,18.5,0.5c6.7,3.3,11.4,7.5,17.7,11.2c3,1.8,6,3.8,8.6,6.2
		c1.4,1.3,2.5,2.7,3.8,4.1c1.1,1.2,2.4,2.3,3.2,3.8c0.3,0.5,0.5,1,0.8,1.5c0.7,1,1.1,2.1,1.6,3.3c1.1,2.3,2.1,4.7,2.4,7.3
		c0.3,2.2,0.9,4.2,0.4,6.5c-0.5,2.3-1.6,4.3-3.4,5.9c-1.9,1.6-1.6,3.3-2.1,5.7c-0.3,1.4-0.9,2.7-1.5,4c-0.5,1-1.4,2-1.6,3.1
		c-0.3,1.5-0.1,3-0.5,4.5c-0.4,1.5-1.1,2.9-1.9,4.2c-0.9,1.6-2.3,2.7-3.2,4.2c-1,1.7-0.9,4.1-0.8,6c0.1,3,1.3,6.3,0.3,9.3
		c-0.7,2.1-3.7,2.3-5.5,1.8c-2-0.5-3-0.9-3.3,1.5c-0.2,1.7-1,2.7-2.5,3.6c-0.8,0.5-2.3,0.1-3.1,0.8c-1.1,0.9-0.3,1.7-1,2.8
		c-1.2,1.7-3.1,3-5.1,3.1c-1.6,0.1-2,0.8-3,1.7c-3.6,3.2-4.4,8.1-10,8.9c-3.2,0.5-8-0.9-10.8-3.2c-1.2,5.6-8.8,6.7-11.8,10.7
		c-1.1,1.5-2.6,6.5-3.1,8.2c-0.8,2.5-0.5,6.3,0.5,8.6c1.3,3.1,3.7,4.2,5.7,6.7c1.6,1.9,2.3,4.8,3.8,6.8c2.1,2.9,2.4,4.4,2,8.1
		c-0.5,4.8,0.8,4.7,3.8,7.8c2.7,2.7,3.7,6.9,3.9,10.8c0.2,3.1-0.1,5.4,1,8.4c0.8,2.2,1.6,3.7,1.8,6c0.4,4.8-0.8,8.8,1.6,13.1
		c1.1,2,2.1,3.4,2.9,5.6c0.5,1.4,0.9,3.6,2.2,4.9c1.9-1.2,3.7-4.3,6-5.2c3.2-1.3,6.1,1.1,7.4-3.2c0.4-1.3-0.5-3,0-4.2
		c0.5-1.4,2.5-2.7,3.6-3.7c2-1.8,4.5-2.8,6.3-4.7c4.3-4.3,6.5-10.5,10.6-14.8c2.5-2.5,3-5,7.1-4.5c1.7,0.2,1.4,1.9,3.3,0.9
		c0.7-0.4,2-3.6,2.5-4.4c2.3-3.6,5.3-5.1,8.3-8c1.3-1.2,1.6-2.5,3.5-3.4c1.7-0.7,3.6-0.5,5.4-1c3.3-0.9,6-3.6,9.4-1.3
		c1,0.7,1.8,2.2,2.9,3c2.1,1.5,4,3.1,6.4,3.2c2.8,0.1,5.6,0.2,8.5,0.3c1.1,0,2.3,0.1,3.4-0.2c2.2-0.6,3.7-3.1,6.3-1.8
		c0.2,0.1,0.3,0.2,0.5,0.3c1.9,1.2,3.1,3.6,2.9,5.7c-0.5,4.3-6.5,3.8-8,6.9c-0.6,1.2,0.1,2.7-0.2,4c-0.6,2.6-0.3,1.5-2.5,3.2
		c-2.8,2.2-4.2,3.1-4.2,7c0,1.3,0.7,3,0.4,4.2c-0.4,1.5-2.3,2-2.8,3.5c-1.1,2.9,1.1,5.5-1.4,8.2c-1.4,1.5-6,3.4-7.7,3.9
		c-1.6,0.5-3.5,0.2-5,0.9c-2.5,1.1-0.8,0.5-2.4,2.5c-3.7,4.9-9.3,6.9-13.7,11.3c-2.1,2.2-2.6,5.5-5.8,6.5c-1.2,1.4-2.3,2.3-3.1,4.3
		c-0.5,1.2-0.7,2.8-1.6,3.8c-2.6,2.8-7.6,2.5-10.8,4c-1.9,0.9-3.7,2.2-5.4,3.6h96.7V9.5H233.2z"/>
	<polyline fill="none" stroke="#000000" stroke-width="0.5275" stroke-miterlimit="10" points="306.9,216.2 349.6,157.8 
		345.8,157.8 298.8,196.2 	"/>
	<path fill="none" stroke="#000000" stroke-width="0.5275" stroke-miterlimit="10" d="M347.5,127.9c7.5-1.9,5.1-11,13.4-10.9
		c6,0,9.8-3.6,15.2-0.5c5.5,3.1,8.1,6.3,10,12.1c1.3,3.9,1.5,6.4,5,8.2c3.6,1.8,4.6,2.6,6.9,6.2c0.7-3,3-2.6,4.3-4.5
		c1-1.4,0.9-4.1,2.5-5.5c3.2-2.7,9.9,0.3,11.1,4.4c3.4-1.4,4.8-5.3,8.4-6.4c2.1-0.6,2.3,0.3,4-1.2c1.5-1.4,1.3-3.6,3.2-4.9
		c3.8-2.6,9.1-0.4,13-2"/>
	<line fill="none" stroke="#000000" stroke-width="0.5275" stroke-miterlimit="10" x1="444.6" y1="266.8" x2="411" y2="227"/>
	<line fill="none" stroke="#000000" stroke-width="0.5275" stroke-miterlimit="10" x1="388.3" y1="201.7" x2="353.9" y2="159.5"/>
	<line fill="none" stroke="#000000" stroke-width="0.5275" stroke-miterlimit="10" x1="444.6" y1="192.6" x2="364.8" y2="159.5"/>
	<path fill="none" stroke="#000000" stroke-width="0.5275" stroke-miterlimit="10" d="M233.6,15.7c3.4-0.2,6.5-1.1,9.9-0.4
		c3.3,0.7,4.5,3.1,7.3,4.5c1.5-4.3,5.2-2.4,7.2-0.3c2.4,2.6,1.9,3.7,2.1,7.4c2.8,0.1,5-0.5,6.8,2c1.4,2,0.5,4.3,1.2,6.5
		c1.9-1.2,2.9-3.8,4.6-5.5c3-2.8,6-2.8,9.7-3c0.4-6.5,2.4-10.4,9.9-10.5c3.8-0.1,8.9,2,11.6,4.8c-2.6-6.3-1.2-12.4,7.3-10.6
		c2,0.4,4.7,1.9,6.3,2.7c2.2,1.1,2.9,1,4.1,3.1c2.1-1.4,6.2-3.7,8.8-2.3c2.8,1.5,3.2,7.6,3.7,10.1c2.9-4.2,7.2-8.8,11.6-10.7
		c2.2-1,5.1-2.9,7.5-3.3"/>
	<path fill="none" stroke="#000000" stroke-width="0.5275" stroke-miterlimit="10" d="M232.5,75.1c4.4,0,8.6-0.7,12.7-1
		c4.8-0.3,6.9,4,11.6,4.8c3.3,0.5,5.6,0,8.3-1.1c1.6-0.6,2.7-1.6,4.7-1.7"/>
	<path fill="none" stroke="#000000" stroke-width="0.5275" stroke-miterlimit="10" d="M233.6,79.3c3.2,0,6.5,0.2,9.1,2.2
		c4.1-4.7,10.2,2.8,11.9,5.9c2.4,4.3,1.7,3.1,5.2,1.8c1.9-0.7,3.8-0.7,6.1-0.7"/>
	<path fill="none" stroke="#000000" stroke-width="0.5275" stroke-miterlimit="10" d="M233.2,100.8c0,2.9,5.3,3.4,7.7,3.2
		c-1,4.5,8.1,4.1,10.9,3c2.7-1.1,2.4-3,5.7-1.9c2.1,0.7,3.3,2.9,5.6,2.4"/>
	<path fill="none" stroke="#000000" stroke-width="0.5275" stroke-miterlimit="10" d="M350.7,59.3c5.7,0,9.6-0.2,14.7-2.4
		c-0.5,3.9,11.4,8.6,13,4.2c-0.3,5.3,8.1,6.1,11.5,4.5c3.3-1.6,5.1-5.9,8.1-7c3.9-1.4,17.3,4.8,19.7,0.8c1.1-1.8-0.4-4.3-2-5.1
		c4.3-1.2,10.5-0.7,13.3-5.2c1.7-2.7,2.2-9.5-1.7-10.6c0.8-4.1,6-6.5,6.3-10.5c0.3-3.5-3-6.2-6-7.1c-1.5-0.4-5.1,0.2-6.3-1.2
		c-0.7-0.8,0.5-2.9-0.1-3.7c-1-1.5-5.5-2.2-7.2-3.3c-1.5-0.9-3.6-2.3-4.7-3.8"/>
	<path fill="none" stroke="#000000" stroke-width="0.5275" stroke-miterlimit="10" d="M353.5,109.6c3.9-0.1,7.2-3.7,11.2-1.5
		c0.1-5,0.9-6.6,5.8-8c2.4-0.6,5.4-1.2,7.8-0.5c2.2-3.7,8.5-1.2,11.2,0.1c0.7,0.3,0.9,1.7,1.4,1.9c1.8,0.7,4.4-0.4,6.4,0
		c0.5,0.1,1.7,0.5,2.1,0.5c0.9-0.1,1.6-0.9,2.9-1.1c3-0.5,7.5-0.8,9.6,1.6c2.7-1.8,7.7-3.5,10.4-1c2.9-3.1,3.2-5.4,7.5-6.1
		c2.6-0.4,5.9-0.8,8.4,0.1c0.9-2.1,3.6-3,5.6-2.8"/>
	<path fill="none" stroke="#000000" stroke-width="0.5275" stroke-miterlimit="10" d="M351,113.8c2.4,0,4.9,0.3,7.3,0.3
		c3,0,5.3-1.4,8-1.3c4.6,0.1,8.5,0.9,12.7,2.6c3.5,1.4,6,1.4,8.9-0.9c2,2.1,4.6,1.5,7,2.2c4.2,1.2,12.6,7.4,16.6,2.1
		c5.1,2,8.5,1.4,13.3,0.7c2.9-0.4,9.4,1.3,9.2-3.5c2.2,0.2,3.8,0.6,5.9-0.7c1.4-0.8,1.8-2.6,3.6-3.3"/>
	<path fill="none" stroke="#000000" stroke-width="0.5275" stroke-miterlimit="10" d="M407.7,165.2c-0.8,0-0.9-6.2-0.2-6.8
		c0.4-0.4,1.1,0,1.4-0.3c0.2-0.2,0.5-0.9,0.6-1.2c0.5-0.9,1.2-1.8,2.1-2.1c0.9-0.3,2.1-0.2,3-0.2c2,0,4.3-0.3,6.2,0.1
		c2.3,0.5,2.9,2.8,4.7,3.5c1.1,0.5,1.3,0.7,1.4,2c0.1,1,0.2,2.1,0.2,2.9c0.1,0.7,0.2,2-0.1,2.6c-0.3,0.6-2.1,0.9-2.7,0.5
		c-0.4-0.3,0-0.8-0.4-1.1c-0.4-0.3-1.2-0.2-1.7-0.2c-0.8,0-1.6-0.1-2.4-0.1c-0.8,0-1.5,0-2.3,0c-0.8,0-1.6-0.1-2.5-0.1
		c0.2,1.1-1.9,1.2-2.7,0.9c-0.9-0.4-1-2-2.4-1.7C409.4,165.3,409.2,165.3,407.7,165.2z"/>
	<path fill="none" stroke="#000000" stroke-width="0.5275" stroke-miterlimit="10" d="M407,161.2c-0.1-0.5,0.4-1.4,1-1.2
		c0.6,0.2,0.5,1.2,0.5,1.7c0.1,1.3,0.1,2.5-0.8,3.4"/>
	<path fill="none" stroke="#000000" stroke-width="0.5275" stroke-miterlimit="10" d="M413,164.3c0,0.6-0.8,1.5-1.2,0.7
		c-0.2-0.4-0.1-1.1-0.1-1.6c0-0.5,0.1-1,0.1-1.6c0.1-0.4,0-1.2,0.5-1.3c0.5-0.1,0.5,0.5,0.5,0.9C413,162.4,413.1,163.3,413,164.3z"
		/>
	<path fill="none" stroke="#000000" stroke-width="0.5275" stroke-miterlimit="10" d="M416,160.5c-0.1-1.3-1.3-1.2-1.7-0.1
		C413.8,161.7,416.1,161.9,416,160.5z"/>
	<path fill="none" stroke="#000000" stroke-width="0.5275" stroke-miterlimit="10" d="M426,160.2c0.6,0.2,0.7,1.1,0.3,1.5
		c-0.4,0.4-1,0.4-1.2-0.2C425.1,160.9,425.3,160,426,160.2z"/>
	<path fill="none" stroke="#000000" stroke-width="0.5275" stroke-miterlimit="10" d="M418.8,158.2c-0.6,0-1.1,0.1-1.7,0.1
		c-0.7,0-1.4,0-2,0c-0.5,0-1.8,0.2-2.1-0.3c-0.2-0.3,0-0.9,0-1.2c0.1-0.4,0.2-0.7,0.2-1.1c1.7,0,3.4,0,5.1,0c0.7,0,1.5,0,2.2,0
		c0.6,0,0.9,0.3,1.4,0.6c0.5,0.3,1.7,1.3,1.5,2.1c-0.2,0.6-1.1,0.2-1.5,0.1c-0.8-0.1-1.7-0.1-2.5-0.1
		C419.2,158.2,419,158.2,418.8,158.2z"/>
	<path fill="none" stroke="#000000" stroke-width="0.5275" stroke-miterlimit="10" d="M349.6,159.5c0.4,0.5,44.1-1,44.1-1l13.3,2.1"
		/>
	<line fill="none" stroke="#000000" stroke-width="0.5275" stroke-miterlimit="10" x1="427.2" y1="163.1" x2="444.2" y2="166"/>
	<polyline fill="none" stroke="#000000" stroke-width="0.5275" stroke-miterlimit="10" points="349.6,157.8 349.6,160.6 309,230.5 	
		"/>
</g>
<g>
	<g>
		<linearGradient id="SVGID_2_" gradientUnits="userSpaceOnUse" x1="380.9741" y1="208.9185" x2="422.6694" y2="208.9185">
			<stop  offset="0" style="stop-color:#71CAEE"/>
			<stop  offset="0.2" style="stop-color:#8881B8"/>
			<stop  offset="0.4" style="stop-color:#EC98BA"/>
			<stop  offset="0.6" style="stop-color:#EE9579"/>
			<stop  offset="0.8" style="stop-color:#FCF099"/>
			<stop  offset="1" style="stop-color:#83C59B"/>
		</linearGradient>
		<polygon fill="url(#SVGID_2_)" points="383.5,223.2 381,218.4 408.3,193.3 420.9,193.3 422.7,198.7 395.2,224.5 		"/>
		<path d="M420.2,194.3l1.4,4.2l-26.8,25.1l-10.8-1.2l-1.9-3.7l26.6-24.4H420.2 M421.5,192.4h-1.3h-11.5H408l-0.5,0.5l-26.6,24.4
			l-1,1l0.7,1.3l1.9,3.7l0.5,0.9l1,0.1l10.8,1.2l0.8,0.1l0.6-0.6l26.8-25.1l0.9-0.8l-0.4-1.1l-1.4-4.2L421.5,192.4L421.5,192.4z"/>
	</g>
	<linearGradient id="SVGID_3_" gradientUnits="userSpaceOnUse" x1="382.127" y1="206.8692" x2="420.2051" y2="206.8692">
		<stop  offset="0" style="stop-color:#71CAEE"/>
		<stop  offset="0.2" style="stop-color:#8881B8"/>
		<stop  offset="0.4" style="stop-color:#EC98BA"/>
		<stop  offset="0.6" style="stop-color:#EE9579"/>
		<stop  offset="0.8" style="stop-color:#FCF099"/>
		<stop  offset="1" style="stop-color:#83C59B"/>
	</linearGradient>
	<polyline fill="url(#SVGID_3_)" stroke="#000000" stroke-width="0.5275" stroke-miterlimit="10" points="382.1,218.6 393.8,219.5 
		420.2,194.3 	"/>
	<linearGradient id="SVGID_4_" gradientUnits="userSpaceOnUse" x1="385.8643" y1="206.5552" x2="415.7559" y2="206.5552">
		<stop  offset="0" style="stop-color:#71CAEE"/>
		<stop  offset="0.2" style="stop-color:#8881B8"/>
		<stop  offset="0.4" style="stop-color:#EC98BA"/>
		<stop  offset="0.6" style="stop-color:#EE9579"/>
		<stop  offset="0.8" style="stop-color:#FCF099"/>
		<stop  offset="1" style="stop-color:#83C59B"/>
	</linearGradient>
	<polygon fill="url(#SVGID_4_)" stroke="#000000" stroke-width="0.5275" stroke-miterlimit="10" points="385.9,216.8 408.7,195.6 
		415.8,196 393.1,217.5 	"/>
</g>
<g>
	<path fill="#FFFFFF" stroke="#000000" stroke-width="1.7584" stroke-miterlimit="10" d="M418.9,207.3c-0.2-0.1-0.3-0.2-0.5-0.3
		c-2.6-1.2-4.1,1.3-6.3,1.8c-1.1,0.3-2.2,0.2-3.4,0.2c-2.8-0.1-5.6-0.2-8.5-0.3c-2.5-0.1-4.4-1.7-6.4-3.2c-1-0.8-1.9-2.3-2.9-3
		c-3.4-2.3-6.1,0.3-9.4,1.3c-1.7,0.5-3.7,0.3-5.4,1c-1.9,0.8-2.2,2.2-3.5,3.4c-3,2.9-6,4.4-8.3,8c-0.5,0.8-1.8,4-2.5,4.4
		c-1.9,1-1.6-0.7-3.3-0.9c-4.1-0.4-4.7,2-7.1,4.5c-4.1,4.3-6.3,10.5-10.6,14.8c-1.8,1.9-4.4,2.9-6.3,4.7c-1.1,1-3.1,2.3-3.6,3.7
		c-0.5,1.2,0.4,3,0,4.2c-1.3,4.4-4.1,2-7.4,3.2c-2.2,0.9-4.1,3.9-6,5.2c-1.2-1.3-1.7-3.4-2.2-4.9c-0.8-2.2-1.8-3.6-2.9-5.6
		c-2.4-4.2-1.2-8.3-1.6-13.1c-0.2-2.4-0.9-3.9-1.8-6c-1.1-3-0.9-5.3-1-8.4c-0.2-4-1.3-8.1-3.9-10.8c-3.1-3.1-4.3-3-3.8-7.8
		c0.4-3.7,0-5.2-2-8.1c-1.5-2.1-2.2-5-3.8-6.8c-2-2.5-4.4-3.5-5.7-6.7c-1-2.4-1.2-6.1-0.5-8.6c0.5-1.7,2-6.7,3.1-8.2
		c2.9-4,10.6-5,11.8-10.7c2.8,2.3,7.6,3.7,10.8,3.2c5.5-0.8,6.3-5.8,10-8.9c1.1-0.9,1.4-1.7,3-1.7c2-0.1,4-1.4,5.1-3.1
		c0.7-1.1,0-1.9,1-2.8c0.8-0.6,2.3-0.3,3.1-0.8c1.5-0.9,2.2-1.9,2.5-3.6c0.3-2.5,1.4-2.1,3.3-1.5c1.8,0.5,4.8,0.3,5.5-1.8
		c1-3-0.2-6.3-0.3-9.3c-0.1-1.9-0.2-4.3,0.8-6c0.9-1.5,2.3-2.6,3.2-4.2c0.8-1.3,1.5-2.7,1.9-4.2c0.4-1.5,0.1-3,0.5-4.5
		c0.3-1.1,1.1-2.1,1.6-3.1c0.6-1.3,1.2-2.6,1.5-4c0.5-2.4,0.2-4.1,2.1-5.7c1.7-1.5,2.9-3.6,3.4-5.9c0.5-2.2-0.1-4.3-0.4-6.5
		c-0.3-2.6-1.3-5-2.4-7.3c-0.6-1.2-0.9-2.2-1.6-3.3c-0.3-0.5-0.6-1-0.8-1.5c-0.8-1.5-2-2.6-3.2-3.8c-1.3-1.4-2.4-2.8-3.8-4.1
		c-2.6-2.4-5.5-4.4-8.6-6.2c-6.2-3.7-11-7.9-17.7-11.2c-4.4-2.2-13-1.5-18.5-0.5c-2.6,0.5-5.3,3-8,4.1c-3.9,1.7-7.5,2.9-11.1,5.6
		c-5.3,4.1-9.7,9.2-12.2,15.6c-1.5,3.8-3.4,7.8-4.7,11.8c-1,2.9-1,6.1-1.7,9.3c-0.6,3-0.4,7-1.4,10.1c-0.9,2.7-2.9,4.5-0.6,7.4
		c-3,2.6-3.7,7.8-7,10.6c-4.1,3.4-7.1-0.2-10.3-2.5c-2.7-1.9-6.2-3.1-9-0.7c-1.6,1.3-2.6,3.1-3.5,4.9c-0.4,0.9-0.8,1.6-1.4,2.4
		c-0.4,0.6-0.7,1.4-0.9,2.1v168h114.3c1.7-1.4,3.5-2.7,5.4-3.6c3.3-1.6,8.2-1.3,10.8-4c0.9-1,1-2.6,1.6-3.8c0.8-2,1.8-2.9,3.1-4.3
		c3.1-1,3.6-4.4,5.8-6.5c4.4-4.5,10.1-6.4,13.7-11.3c1.5-2-0.1-1.4,2.4-2.5c1.5-0.7,3.4-0.4,5-0.9c1.7-0.5,6.3-2.4,7.7-3.9
		c2.4-2.6,0.3-5.3,1.4-8.2c0.6-1.5,2.4-2,2.8-3.5c0.4-1.2-0.4-2.9-0.4-4.2c0-3.9,1.4-4.8,4.2-7c2.1-1.7,1.9-0.5,2.5-3.2
		c0.3-1.3-0.3-2.8,0.2-4c1.6-3.2,7.6-2.7,8-6.9C422,210.9,420.7,208.4,418.9,207.3z"/>
	<path fill="none" stroke="#000000" stroke-width="0.5275" stroke-miterlimit="10" d="M353.2,105.1c-2.7-0.4-5,3.1-6.6,4.8
		c-2,2.1-4.2,3.8-5.5,6.2c-0.5,0.9-2.2,5.3,0.1,5.4c0.8,0,1.7-0.9,2.4-1.2c1-0.4,1.7-0.8,2.5-1.4c2.1-1.5,4-3,4.8-5.5
		c0.9-0.4,1.3-1.1,1.6-2.1c0.3-1.1,0.8-2.1,1.1-3.1c0.3-1.6,0-3.2-1.9-3"/>
	<path fill="none" stroke="#000000" stroke-width="0.5275" stroke-miterlimit="10" d="M348.5,107c-1.8,0.2-2.2-0.9-3.1-2
		c-0.6-0.7-1.6-1.4-2.3-2c-3.2-2.7-26-19.5-27.8-20.4c-1.2-0.6-2.6-1.6-3.8-1.8c-1-0.2-2.2,0-3.2,0"/>
	<path fill="none" stroke="#000000" stroke-width="0.5275" stroke-miterlimit="10" d="M309.2,85.3c0.2-2.2-2.2-5.7-3.6-7.2
		c-1.1-1.2-2.3-2.1-3.9-2c-1.1,0-2.1,0.1-3.2,0.6c-5,2.3-6.9,7.3-6.9,12.8c0,1.7-0.2,3.5,0,5.1c0.3,1.9,1.1,3.5,1.5,5.5
		c0.5,2.2,1.6,3.1,3.1,4.5c1.3,1.2,2.2,1.2,4,1.2"/>
	<path fill="none" stroke="#000000" stroke-width="0.5275" stroke-miterlimit="10" d="M265.2,105.8c3.2,2,7.5,0.7,10.7-0.7
		c1-0.5,2.3-0.7,3.3-1.2c1.1-0.6,2-2,2.7-3c1.1-1.7,1.2-3.4,2.5-5c1.2-1.4,2.1-3.2,3.4-4.5c0.9-0.9,2.5-2.8,3.8-2.8"/>
	<path fill="none" stroke="#000000" stroke-width="0.5275" stroke-miterlimit="10" d="M309.2,83.4c0.9,0.3,2.6,0.8,3.4,1.7
		c0.8,0.9,1.3,3.1,1.4,4.3c0.1,1,0.1,2.2,0.1,3.2c0.1,1.6-0.4,2.7-0.7,4.2c-0.2,1-0.1,2.3-0.6,3.2c-0.5,1-1.5,1.5-0.4,2.6
		c0.8,0.8,2.6,0.9,3.6,1.2c0.8,0.2,1.6,0.5,2.4,0.8c1.3-1.3,1.5-3.3,2.6-4.7c0.7-0.9,1.5-1.7,2.1-2.6c0.8-1.3,0.9-3,2-4.2
		c1.4-1.6,3-3.7,5.3-3.8c1.5-0.1,2.7-0.4,4-0.7c0.3-0.1,1,0,1.4-0.2c1.1-0.6,0.4-1,0-2.1c-0.6-1.7-0.6-3.9-0.1-5.6
		c0.8-2.5,2.3-4.6,3.5-6.9c0.8-1.6,1.6-3.1,2.8-4.3c0.6-0.6,1.6-2,2.3-2.2c1.3-0.4,2.7,0.4,3.9,0.8c2.5,0.8,5.1,3.3,6.4,5.6
		c0.3,0.6,0.6,1.2,1,1.7c0.5,0.8,0.5,1.1,0.9,2.1c0.3,0.7,0.7,1.2,0.9,1.9c0.2,1,0.3,2,0.5,3.1c0.5,2.8,0.4,6.2,0.1,9.1
		c-0.1,0.7-0.2,1.3-0.3,2"/>
	<path fill="none" stroke="#000000" stroke-width="0.5275" stroke-miterlimit="10" d="M232.9,133.8c7.5,3.2,14.6,9.7,21,14.8
		c5.2,4.1,11.3,8,16,12.3c-0.1-5,2.7-10.1,5.2-14.3c1.8-3.1,5.3-4.5,6.9-7.6"/>
	<path fill="none" stroke="#000000" stroke-width="0.5275" stroke-miterlimit="10" d="M253.4,117.8c1.3,1.2,3.2,1.8,4.7,2.9
		c3.3,2.4,6.2,5.3,9.5,7.6c4.1,2.7,9.1,5.3,12.4,8.9c2,2.2,3.7,4.6,6.6,5.9c2.9,1.3,5.8,1.1,8.7,1.8c2.7,0.7,3.4,2.2,4.7,4.4
		c1,1.7,2.8,3.1,3.4,5.1"/>
	<path fill="none" stroke="#000000" stroke-width="0.5275" stroke-miterlimit="10" d="M291.9,117.5c0,2.9-2,5.7-2.6,8.5
		c-0.4,1.9-0.6,4.4-0.4,6.3c0.2,2.6,2.3,4.8,3.6,6.9c2,3.1,6.5,5.8,7.3,9.4"/>
	<path fill="none" stroke="#000000" stroke-width="0.5275" stroke-miterlimit="10" d="M279.4,211.7c0.5-2.9-1.6-6.4-0.6-9.2
		c1.7-4.5,5.9,1.3,7.6,3.2c1.7,1.9,1.9,4.9,2.3,7.5c0.8,5.1,2.1,13.2,0.6,18.3c-1.3,4.3-6.8,5.2-10.6,6.3c-4.3,1.2-9,5.3-13.7,3.1
		c-4.7-2.3,0.2-12.8-3.9-16.8c3.5-0.8,6.6-3,9.8-4.5c1.2-0.5,2.7-0.7,3.8-1.3C276.9,216.8,279,214.2,279.4,211.7z"/>
	<path fill="none" stroke="#000000" stroke-width="0.5275" stroke-miterlimit="10" d="M263.1,290c4.7,0,6.1-1.6,9.4-4.5
		c3.8-3.4,8.5-5.4,13.6-6.4c6.2-1.1,10.4-4.7,15.5-8.7c3.4-2.7,7.1-3.9,10.7-6.2c1.6-1.1,2.7-2,4-3.5c0.9-1,2-2.8,3.4-2.7"/>
	<path fill="none" stroke="#000000" stroke-width="0.5275" stroke-miterlimit="10" d="M380.6,210.9c7.9,0,15-1.1,22.7-2.5"/>
	<path fill="none" stroke="#000000" stroke-width="0.5275" stroke-miterlimit="10" d="M339.4,134.9c-2.5,0-5.2-1.1-7.6-0.9
		c-2.6,0.2-5.1,2.9-6.6,5.1c-1.3,1.9,0,3.1,2.2,1.9c2-1.1,1.9-4.3,4.8-4.2c1.9,0.1,2.6,1.9,4.8,1.6"/>
	<path fill="none" stroke="#000000" stroke-width="0.5275" stroke-miterlimit="10" d="M339.3,240.4c4.9-0.2,6.7,3.4,10.6,5.6
		c4.4,2.4,7.8,7.5,10.7,11.5c2.5,3.4,3.4,8.1,5.2,11.8c0.7,1.4,0.9,2.6,1.4,4c0.3,0.8,0.9,1.2,1.1,2.1"/>
	<path fill="none" stroke="#000000" stroke-width="0.5275" stroke-miterlimit="10" d="M360.2,220.9c3.4,1.5,6.1,4.4,9.1,6.7
		c3.4,2.6,6.8,5.4,9.7,8.6c2.2,2.4,3.6,5.4,5.6,7.9c1.2,1.5,1.8,2.9,2.6,4.6c0.9,1.8,1.6,4.7,1.4,6.9"/>
	<path fill="none" stroke="#000000" stroke-width="0.5275" stroke-miterlimit="10" d="M407.1,220.5c2.4,1.1,5.1-0.2,7-1.1"/>
	<path fill="none" stroke="#000000" stroke-width="0.5275" stroke-miterlimit="10" d="M275.1,281.9c-4-5.7-7.2-11.7-9.8-17.8
		c-1.8-4.1-4-8.4-4.6-12.8c-0.8-5.7,0.4-11.6-0.7-17.3c-1.5-7.9-4.6-15.4-4.6-23.9c0-5-1.1-13.5,1.4-17.5"/>
</g>
<g>
	<path fill="#FFFFFF" stroke="#000000" stroke-width="1.7584" stroke-miterlimit="10" d="M9.7,9.5v113.4c0.3-0.7,0.5-1.5,0.9-2.1
		c0.6-0.8,1-1.5,1.4-2.4c0.9-1.8,1.9-3.6,3.5-4.9c2.8-2.4,6.3-1.2,9,0.7c3.3,2.3,6.2,5.9,10.3,2.5c3.3-2.7,4-8,7-10.6
		c-2.2-2.9-0.2-4.7,0.6-7.4c1-3.2,0.8-7.1,1.4-10.1c0.7-3.2,0.7-6.4,1.7-9.3c1.4-4,3.3-8.1,4.7-11.8c2.5-6.4,6.9-11.5,12.2-15.6
		c3.5-2.8,7.2-4,11.1-5.6c2.7-1.1,5.4-3.6,8-4.1c5.6-1,14.1-1.7,18.5,0.5c6.7,3.3,11.4,7.5,17.7,11.2c3,1.8,6,3.8,8.6,6.2
		c1.4,1.3,2.5,2.7,3.8,4.1c1.1,1.2,2.4,2.3,3.2,3.8c0.3,0.5,0.5,1,0.8,1.5c0.7,1,1.1,2.1,1.6,3.3c1.1,2.3,2.1,4.7,2.4,7.3
		c0.3,2.2,0.9,4.2,0.4,6.5c-0.5,2.3-1.6,4.3-3.4,5.9c-1.9,1.6-1.6,3.3-2.1,5.7c-0.3,1.4-0.9,2.7-1.5,4c-0.5,1-1.4,2-1.6,3.1
		c-0.3,1.5-0.1,3-0.5,4.5c-0.4,1.5-1.1,2.9-1.9,4.2c-0.9,1.6-2.3,2.7-3.2,4.2c-1,1.7-0.9,4.1-0.8,6c0.1,3,1.3,6.3,0.3,9.3
		c-0.7,2.1-3.7,2.3-5.5,1.8c-2-0.5-3-0.9-3.3,1.5c-0.2,1.7-1,2.7-2.5,3.6c-0.8,0.5-2.3,0.1-3.1,0.8c-1.1,0.9-0.3,1.7-1,2.8
		c-1.2,1.7-3.1,3-5.1,3.1c-1.6,0.1-2,0.8-3,1.7c-3.6,3.2-4.4,8.1-10,8.9c-3.2,0.5-8-0.9-10.8-3.2c-1.2,5.6-8.8,6.7-11.8,10.7
		c-1.1,1.5-2.6,6.5-3.1,8.2c-0.8,2.5-0.5,6.3,0.5,8.6c1.3,3.1,3.7,4.2,5.7,6.7c1.6,1.9,2.3,4.8,3.8,6.8c2.1,2.9,2.4,4.4,2,8.1
		c-0.5,4.8,0.8,4.7,3.8,7.8c2.7,2.7,3.7,6.9,3.9,10.8c0.2,3.1-0.1,5.4,1,8.4c0.8,2.2,1.6,3.7,1.8,6c0.4,4.8-0.8,8.8,1.6,13.1
		c1.1,2,2.1,3.4,2.9,5.6c0.5,1.4,0.9,3.6,2.2,4.9c1.9-1.2,3.7-4.3,6-5.2c3.2-1.3,6.1,1.1,7.4-3.2c0.4-1.3-0.5-3,0-4.2
		c0.5-1.4,2.5-2.7,3.6-3.7c2-1.8,4.5-2.8,6.3-4.7c4.3-4.3,6.5-10.5,10.6-14.8c2.5-2.5,3-5,7.1-4.5c1.7,0.2,1.4,1.9,3.3,0.9
		c0.7-0.4,2-3.6,2.5-4.4c2.3-3.6,5.3-5.1,8.3-8c1.3-1.2,1.6-2.5,3.5-3.4c1.7-0.7,3.6-0.5,5.4-1c3.3-0.9,6-3.6,9.4-1.3
		c1,0.7,1.8,2.2,2.9,3c2.1,1.5,4,3.1,6.4,3.2c2.8,0.1,5.6,0.2,8.5,0.3c1.1,0,2.3,0.1,3.4-0.2c2.2-0.6,3.7-3.1,6.3-1.8
		c0.2,0.1,0.3,0.2,0.5,0.3c1.9,1.2,3.1,3.6,2.9,5.7c-0.5,4.3-6.5,3.8-8,6.9c-0.6,1.2,0.1,2.7-0.2,4c-0.6,2.6-0.3,1.5-2.5,3.2
		c-2.8,2.2-4.2,3.1-4.2,7c0,1.3,0.7,3,0.4,4.2c-0.4,1.5-2.3,2-2.8,3.5c-1.1,2.9,1.1,5.5-1.4,8.2c-1.4,1.5-6,3.4-7.7,3.9
		c-1.6,0.5-3.5,0.2-5,0.9c-2.5,1.1-0.8,0.5-2.4,2.5c-3.7,4.9-9.3,6.9-13.7,11.3c-2.1,2.2-2.6,5.5-5.8,6.5c-1.2,1.4-2.3,2.3-3.1,4.3
		c-0.5,1.2-0.7,2.8-1.6,3.8c-2.6,2.8-7.6,2.5-10.8,4c-1.9,0.9-3.7,2.2-5.4,3.6h96.7V9.5H9.7z"/>
	<polyline fill="none" stroke="#000000" stroke-width="0.5275" stroke-miterlimit="10" points="83.4,216.2 126.1,157.8 122.2,157.8 
		75.2,196.2 	"/>
	<path fill="none" stroke="#000000" stroke-width="0.5275" stroke-miterlimit="10" d="M124,127.9c7.5-1.9,5.1-11,13.4-10.9
		c6,0,9.8-3.6,15.2-0.5c5.5,3.1,8.1,6.3,10,12.1c1.3,3.9,1.5,6.4,5,8.2c3.6,1.8,4.6,2.6,6.9,6.2c0.7-3,3-2.6,4.3-4.5
		c1-1.4,0.9-4.1,2.5-5.5c3.2-2.7,9.9,0.3,11.1,4.4c3.4-1.4,4.8-5.3,8.4-6.4c2.1-0.6,2.3,0.3,4-1.2c1.5-1.4,1.3-3.6,3.2-4.9
		c3.8-2.6,9.1-0.4,13-2"/>
	<line fill="none" stroke="#000000" stroke-width="0.5275" stroke-miterlimit="10" x1="221.1" y1="266.8" x2="187.5" y2="227"/>
	<line fill="none" stroke="#000000" stroke-width="0.5275" stroke-miterlimit="10" x1="164.8" y1="201.7" x2="130.3" y2="159.5"/>
	<line fill="none" stroke="#000000" stroke-width="0.5275" stroke-miterlimit="10" x1="221.1" y1="192.6" x2="141.2" y2="159.5"/>
	<path fill="none" stroke="#000000" stroke-width="0.5275" stroke-miterlimit="10" d="M10.1,15.7c3.4-0.2,6.5-1.1,9.9-0.4
		c3.3,0.7,4.5,3.1,7.3,4.5c1.5-4.3,5.2-2.4,7.2-0.3c2.4,2.6,1.9,3.7,2.1,7.4c2.8,0.1,5-0.5,6.8,2c1.4,2,0.5,4.3,1.2,6.5
		c1.9-1.2,2.9-3.8,4.6-5.5c3-2.8,6-2.8,9.7-3c0.4-6.5,2.4-10.4,9.9-10.5c3.8-0.1,8.9,2,11.6,4.8c-2.6-6.3-1.2-12.4,7.3-10.6
		c2,0.4,4.7,1.9,6.3,2.7c2.2,1.1,2.9,1,4.1,3.1c2.1-1.4,6.2-3.7,8.8-2.3c2.8,1.5,3.2,7.6,3.7,10.1c2.9-4.2,7.2-8.8,11.6-10.7
		c2.2-1,5.1-2.9,7.5-3.3"/>
	<path fill="none" stroke="#000000" stroke-width="0.5275" stroke-miterlimit="10" d="M9,75.1c4.4,0,8.6-0.7,12.7-1
		c4.8-0.3,6.9,4,11.6,4.8c3.3,0.5,5.6,0,8.3-1.1c1.6-0.6,2.7-1.6,4.7-1.7"/>
	<path fill="none" stroke="#000000" stroke-width="0.5275" stroke-miterlimit="10" d="M10.1,79.3c3.2,0,6.5,0.2,9.1,2.2
		c4.1-4.7,10.2,2.8,11.9,5.9c2.4,4.3,1.7,3.1,5.2,1.8c1.9-0.7,3.8-0.7,6.1-0.7"/>
	<path fill="none" stroke="#000000" stroke-width="0.5275" stroke-miterlimit="10" d="M9.7,100.8c0,2.9,5.3,3.4,7.7,3.2
		c-1,4.5,8.1,4.1,10.9,3c2.7-1.1,2.4-3,5.7-1.9c2.1,0.7,3.3,2.9,5.6,2.4"/>
	<path fill="none" stroke="#000000" stroke-width="0.5275" stroke-miterlimit="10" d="M127.2,59.3c5.7,0,9.6-0.2,14.7-2.4
		c-0.5,3.9,11.4,8.6,13,4.2c-0.3,5.3,8.1,6.1,11.5,4.5c3.3-1.6,5.1-5.9,8.1-7c3.9-1.4,17.3,4.8,19.7,0.8c1.1-1.8-0.4-4.3-2-5.1
		c4.3-1.2,10.5-0.7,13.3-5.2c1.7-2.7,2.2-9.5-1.7-10.6c0.8-4.1,6-6.5,6.3-10.5c0.3-3.5-3-6.2-6-7.1c-1.5-0.4-5.1,0.2-6.3-1.2
		c-0.7-0.8,0.5-2.9-0.1-3.7c-1-1.5-5.5-2.2-7.2-3.3c-1.5-0.9-3.6-2.3-4.7-3.8"/>
	<path fill="none" stroke="#000000" stroke-width="0.5275" stroke-miterlimit="10" d="M130,109.6c3.9-0.1,7.2-3.7,11.2-1.5
		c0.1-5,0.9-6.6,5.8-8c2.4-0.6,5.4-1.2,7.8-0.5c2.2-3.7,8.5-1.2,11.2,0.1c0.7,0.3,0.9,1.7,1.4,1.9c1.8,0.7,4.4-0.4,6.4,0
		c0.5,0.1,1.7,0.5,2.1,0.5c0.9-0.1,1.6-0.9,2.9-1.1c3-0.5,7.5-0.8,9.6,1.6c2.7-1.8,7.7-3.5,10.4-1c2.9-3.1,3.2-5.4,7.5-6.1
		c2.6-0.4,5.9-0.8,8.4,0.1c0.9-2.1,3.6-3,5.6-2.8"/>
	<path fill="none" stroke="#000000" stroke-width="0.5275" stroke-miterlimit="10" d="M127.5,113.8c2.4,0,4.9,0.3,7.3,0.3
		c3,0,5.3-1.4,8-1.3c4.6,0.1,8.5,0.9,12.7,2.6c3.5,1.4,6,1.4,8.9-0.9c2,2.1,4.6,1.5,7,2.2c4.2,1.2,12.6,7.4,16.6,2.1
		c5.1,2,8.5,1.4,13.3,0.7c2.9-0.4,9.4,1.3,9.2-3.5c2.2,0.2,3.8,0.6,5.9-0.7c1.4-0.8,1.8-2.6,3.6-3.3"/>
	<path fill="none" stroke="#000000" stroke-width="0.5275" stroke-miterlimit="10" d="M184.2,165.2c-0.8,0-0.9-6.2-0.2-6.8
		c0.4-0.4,1.1,0,1.4-0.3c0.2-0.2,0.5-0.9,0.6-1.2c0.5-0.9,1.2-1.8,2.1-2.1c0.9-0.3,2.1-0.2,3-0.2c2,0,4.3-0.3,6.2,0.1
		c2.3,0.5,2.9,2.8,4.7,3.5c1.1,0.5,1.3,0.7,1.4,2c0.1,1,0.2,2.1,0.2,2.9c0.1,0.7,0.2,2-0.1,2.6c-0.3,0.6-2.1,0.9-2.7,0.5
		c-0.4-0.3,0-0.8-0.4-1.1c-0.4-0.3-1.2-0.2-1.7-0.2c-0.8,0-1.6-0.1-2.4-0.1c-0.8,0-1.5,0-2.3,0c-0.8,0-1.6-0.1-2.5-0.1
		c0.2,1.1-1.9,1.2-2.7,0.9c-0.9-0.4-1-2-2.4-1.7C185.9,165.3,185.7,165.3,184.2,165.2z"/>
	<path fill="none" stroke="#000000" stroke-width="0.5275" stroke-miterlimit="10" d="M183.5,161.2c-0.1-0.5,0.4-1.4,1-1.2
		c0.6,0.2,0.5,1.2,0.5,1.7c0.1,1.3,0.1,2.5-0.8,3.4"/>
	<path fill="none" stroke="#000000" stroke-width="0.5275" stroke-miterlimit="10" d="M189.5,164.3c0,0.6-0.8,1.5-1.2,0.7
		c-0.2-0.4-0.1-1.1-0.1-1.6c0-0.5,0.1-1,0.1-1.6c0.1-0.4,0-1.2,0.5-1.3c0.5-0.1,0.5,0.5,0.5,0.9
		C189.5,162.4,189.6,163.3,189.5,164.3z"/>
	<path fill="none" stroke="#000000" stroke-width="0.5275" stroke-miterlimit="10" d="M192.4,160.5c-0.1-1.3-1.3-1.2-1.7-0.1
		C190.3,161.7,192.6,161.9,192.4,160.5z"/>
	<path fill="none" stroke="#000000" stroke-width="0.5275" stroke-miterlimit="10" d="M202.5,160.2c0.6,0.2,0.7,1.1,0.3,1.5
		c-0.4,0.4-1,0.4-1.2-0.2C201.5,160.9,201.8,160,202.5,160.2z"/>
	<path fill="none" stroke="#000000" stroke-width="0.5275" stroke-miterlimit="10" d="M195.3,158.2c-0.6,0-1.1,0.1-1.7,0.1
		c-0.7,0-1.4,0-2,0c-0.5,0-1.8,0.2-2.1-0.3c-0.2-0.3,0-0.9,0-1.2c0.1-0.4,0.2-0.7,0.2-1.1c1.7,0,3.4,0,5.1,0c0.7,0,1.5,0,2.2,0
		c0.6,0,0.9,0.3,1.4,0.6c0.5,0.3,1.7,1.3,1.5,2.1c-0.2,0.6-1.1,0.2-1.5,0.1c-0.8-0.1-1.7-0.1-2.5-0.1
		C195.7,158.2,195.5,158.2,195.3,158.2z"/>
	<path fill="none" stroke="#000000" stroke-width="0.5275" stroke-miterlimit="10" d="M126.1,159.5c0.4,0.5,44.1-1,44.1-1l13.3,2.1"
		/>
	<line fill="none" stroke="#000000" stroke-width="0.5275" stroke-miterlimit="10" x1="203.7" y1="163.1" x2="220.7" y2="166"/>
	<polyline fill="none" stroke="#000000" stroke-width="0.5275" stroke-miterlimit="10" points="126.1,157.8 126.1,160.6 85.5,230.5 
			"/>
</g>
<g>
	<g>
		<polygon fill="#FFFFFF" points="159.9,223.2 157.4,218.4 184.8,193.3 197.3,193.3 199.1,198.7 171.6,224.5 		"/>
		<path d="M196.7,194.3l1.4,4.2l-26.8,25.1l-10.8-1.2l-1.9-3.7l26.6-24.4H196.7 M198,192.4h-1.3h-11.5h-0.7l-0.5,0.5l-26.6,24.4
			l-1,1l0.7,1.3l1.9,3.7l0.5,0.9l1,0.1l10.8,1.2l0.8,0.1l0.6-0.6l26.8-25.1l0.9-0.8l-0.4-1.1l-1.4-4.2L198,192.4L198,192.4z"/>
	</g>
	<polyline fill="none" stroke="#000000" stroke-width="0.5275" stroke-miterlimit="10" points="158.6,218.6 170.2,219.5 
		196.7,194.3 	"/>
	<polygon fill="none" stroke="#000000" stroke-width="0.5275" stroke-miterlimit="10" points="162.3,216.8 185.2,195.6 192.2,196 
		169.5,217.5 	"/>
</g>
<linearGradient id="SVGID_5_" gradientUnits="userSpaceOnUse" x1="9.7031" y1="165.9819" x2="198.2286" y2="165.9819">
	<stop  offset="0" style="stop-color:#71CAEE"/>
	<stop  offset="0.2" style="stop-color:#8881B8"/>
	<stop  offset="0.4" style="stop-color:#EC98BA"/>
	<stop  offset="0.6" style="stop-color:#EE9579"/>
	<stop  offset="0.8" style="stop-color:#FCF099"/>
	<stop  offset="1" style="stop-color:#83C59B"/>
</linearGradient>
<path fill="url(#SVGID_5_)" stroke="#000000" stroke-width="1.7584" stroke-miterlimit="10" d="M195.3,207.3
	c-0.2-0.1-0.3-0.2-0.5-0.3c-2.6-1.2-4.1,1.3-6.3,1.8c-1.1,0.3-2.2,0.2-3.4,0.2c-2.8-0.1-5.6-0.2-8.5-0.3c-2.5-0.1-4.4-1.7-6.4-3.2
	c-1-0.8-1.9-2.3-2.9-3c-3.4-2.3-6.1,0.3-9.4,1.3c-1.7,0.5-3.7,0.3-5.4,1c-1.9,0.8-2.2,2.2-3.5,3.4c-3,2.9-6,4.4-8.3,8
	c-0.5,0.8-1.8,4-2.5,4.4c-1.9,1-1.6-0.7-3.3-0.9c-4.1-0.4-4.7,2-7.1,4.5c-4.1,4.3-6.3,10.5-10.6,14.8c-1.8,1.9-4.4,2.9-6.3,4.7
	c-1.1,1-3.1,2.3-3.6,3.7c-0.5,1.2,0.4,3,0,4.2c-1.3,4.4-4.1,2-7.4,3.2c-2.2,0.9-4.1,3.9-6,5.2c-1.2-1.3-1.7-3.4-2.2-4.9
	c-0.8-2.2-1.8-3.6-2.9-5.6c-2.4-4.2-1.2-8.3-1.6-13.1c-0.2-2.4-0.9-3.9-1.8-6c-1.1-3-0.9-5.3-1-8.4c-0.2-4-1.3-8.1-3.9-10.8
	c-3.1-3.1-4.3-3-3.8-7.8c0.4-3.7,0-5.2-2-8.1c-1.5-2.1-2.2-5-3.8-6.8c-2-2.5-4.4-3.5-5.7-6.7c-1-2.4-1.2-6.1-0.5-8.6
	c0.5-1.7,2-6.7,3.1-8.2c2.9-4,10.6-5,11.8-10.7c2.8,2.3,7.6,3.7,10.8,3.2c5.5-0.8,6.3-5.8,10-8.9c1.1-0.9,1.4-1.7,3-1.7
	c2-0.1,4-1.4,5.1-3.1c0.7-1.1,0-1.9,1-2.8c0.8-0.6,2.3-0.3,3.1-0.8c1.5-0.9,2.2-1.9,2.5-3.6c0.3-2.5,1.4-2.1,3.3-1.5
	c1.8,0.5,4.8,0.3,5.5-1.8c1-3-0.2-6.3-0.3-9.3c-0.1-1.9-0.2-4.3,0.8-6c0.9-1.5,2.3-2.6,3.2-4.2c0.8-1.3,1.5-2.7,1.9-4.2
	c0.4-1.5,0.1-3,0.5-4.5c0.3-1.1,1.1-2.1,1.6-3.1c0.6-1.3,1.2-2.6,1.5-4c0.5-2.4,0.2-4.1,2.1-5.7c1.7-1.5,2.9-3.6,3.4-5.9
	c0.5-2.2-0.1-4.3-0.4-6.5c-0.3-2.6-1.3-5-2.4-7.3c-0.6-1.2-0.9-2.2-1.6-3.3c-0.3-0.5-0.6-1-0.8-1.5c-0.8-1.5-2-2.6-3.2-3.8
	c-1.3-1.4-2.4-2.8-3.8-4.1c-2.6-2.4-5.5-4.4-8.6-6.2c-6.2-3.7-11-7.9-17.7-11.2c-4.4-2.2-13-1.5-18.5-0.5c-2.6,0.5-5.3,3-8,4.1
	c-3.9,1.7-7.5,2.9-11.1,5.6c-5.3,4.1-9.7,9.2-12.2,15.6c-1.5,3.8-3.4,7.8-4.7,11.8c-1,2.9-1,6.1-1.7,9.3c-0.6,3-0.4,7-1.4,10.1
	c-0.9,2.7-2.9,4.5-0.6,7.4c-3,2.6-3.7,7.8-7,10.6c-4.1,3.4-7.1-0.2-10.3-2.5c-2.7-1.9-6.2-3.1-9-0.7c-1.6,1.3-2.6,3.1-3.5,4.9
	c-0.4,0.9-0.8,1.6-1.4,2.4c-0.4,0.6-0.7,1.4-0.9,2.1v168H124c1.7-1.4,3.5-2.7,5.4-3.6c3.3-1.6,8.2-1.3,10.8-4c0.9-1,1-2.6,1.6-3.8
	c0.8-2,1.8-2.9,3.1-4.3c3.1-1,3.6-4.4,5.8-6.5c4.4-4.5,10.1-6.4,13.7-11.3c1.5-2-0.1-1.4,2.4-2.5c1.5-0.7,3.4-0.4,5-0.9
	c1.7-0.5,6.3-2.4,7.7-3.9c2.4-2.6,0.3-5.3,1.4-8.2c0.6-1.5,2.4-2,2.8-3.5c0.4-1.2-0.4-2.9-0.4-4.2c0-3.9,1.4-4.8,4.2-7
	c2.1-1.7,1.9-0.5,2.5-3.2c0.3-1.3-0.3-2.8,0.2-4c1.6-3.2,7.6-2.7,8-6.9C198.4,210.9,197.2,208.4,195.3,207.3z"/>
<path fill="none" stroke="#000000" stroke-width="0.5275" stroke-miterlimit="10" d="M129.6,105.1c-2.7-0.4-5,3.1-6.6,4.8
	c-2,2.1-4.2,3.8-5.5,6.2c-0.5,0.9-2.2,5.3,0.1,5.4c0.8,0,1.7-0.9,2.4-1.2c1-0.4,1.7-0.8,2.5-1.4c2.1-1.5,4-3,4.8-5.5
	c0.9-0.4,1.3-1.1,1.6-2.1c0.3-1.1,0.8-2.1,1.1-3.1c0.3-1.6,0-3.2-1.9-3"/>
<path fill="none" stroke="#000000" stroke-width="0.5275" stroke-miterlimit="10" d="M124.9,107c-1.8,0.2-2.2-0.9-3.1-2
	c-0.6-0.7-1.6-1.4-2.3-2c-3.2-2.7-26-19.5-27.8-20.4c-1.2-0.6-2.6-1.6-3.8-1.8c-1-0.2-2.2,0-3.2,0"/>
<path fill="none" stroke="#000000" stroke-width="0.5275" stroke-miterlimit="10" d="M85.7,85.3c0.2-2.2-2.2-5.7-3.6-7.2
	c-1.1-1.2-2.3-2.1-3.9-2c-1.1,0-2.1,0.1-3.2,0.6c-5,2.3-6.9,7.3-6.9,12.8c0,1.7-0.2,3.5,0,5.1c0.3,1.9,1.1,3.5,1.5,5.5
	c0.5,2.2,1.6,3.1,3.1,4.5c1.3,1.2,2.2,1.2,4,1.2"/>
<path fill="none" stroke="#000000" stroke-width="0.5275" stroke-miterlimit="10" d="M41.7,105.8c3.2,2,7.5,0.7,10.7-0.7
	c1-0.5,2.3-0.7,3.3-1.2c1.1-0.6,2-2,2.7-3c1.1-1.7,1.2-3.4,2.5-5c1.2-1.4,2.1-3.2,3.4-4.5c0.9-0.9,2.5-2.8,3.8-2.8"/>
<path fill="none" stroke="#000000" stroke-width="0.5275" stroke-miterlimit="10" d="M85.7,83.4c0.9,0.3,2.6,0.8,3.4,1.7
	c0.8,0.9,1.3,3.1,1.4,4.3c0.1,1,0.1,2.2,0.1,3.2c0.1,1.6-0.4,2.7-0.7,4.2c-0.2,1-0.1,2.3-0.6,3.2c-0.5,1-1.5,1.5-0.4,2.6
	c0.8,0.8,2.6,0.9,3.6,1.2c0.8,0.2,1.6,0.5,2.4,0.8c1.3-1.3,1.5-3.3,2.6-4.7c0.7-0.9,1.5-1.7,2.1-2.6c0.8-1.3,0.9-3,2-4.2
	c1.4-1.6,3-3.7,5.3-3.8c1.5-0.1,2.7-0.4,4-0.7c0.3-0.1,1,0,1.4-0.2c1.1-0.6,0.4-1,0-2.1c-0.6-1.7-0.6-3.9-0.1-5.6
	c0.8-2.5,2.3-4.6,3.5-6.9c0.8-1.6,1.6-3.1,2.8-4.3c0.6-0.6,1.6-2,2.3-2.2c1.3-0.4,2.7,0.4,3.9,0.8c2.5,0.8,5.1,3.3,6.4,5.6
	c0.3,0.6,0.6,1.2,1,1.7c0.5,0.8,0.5,1.1,0.9,2.1c0.3,0.7,0.7,1.2,0.9,1.9c0.2,1,0.3,2,0.5,3.1c0.5,2.8,0.4,6.2,0.1,9.1
	c-0.1,0.7-0.2,1.3-0.3,2"/>
<path fill="none" stroke="#000000" stroke-width="0.5275" stroke-miterlimit="10" d="M9.4,133.8c7.5,3.2,14.6,9.7,21,14.8
	c5.2,4.1,11.3,8,16,12.3c-0.1-5,2.7-10.1,5.2-14.3c1.8-3.1,5.3-4.5,6.9-7.6"/>
<path fill="none" stroke="#000000" stroke-width="0.5275" stroke-miterlimit="10" d="M29.9,117.8c1.3,1.2,3.2,1.8,4.7,2.9
	c3.3,2.4,6.2,5.3,9.5,7.6c4.1,2.7,9.1,5.3,12.4,8.9c2,2.2,3.7,4.6,6.6,5.9c2.9,1.3,5.8,1.1,8.7,1.8c2.7,0.7,3.4,2.2,4.7,4.4
	c1,1.7,2.8,3.1,3.4,5.1"/>
<path fill="none" stroke="#000000" stroke-width="0.5275" stroke-miterlimit="10" d="M68.4,117.5c0,2.9-2,5.7-2.6,8.5
	c-0.4,1.9-0.6,4.4-0.4,6.3c0.2,2.6,2.3,4.8,3.6,6.9c2,3.1,6.5,5.8,7.3,9.4"/>
<path fill="none" stroke="#000000" stroke-width="0.5275" stroke-miterlimit="10" d="M55.9,211.7c0.5-2.9-1.6-6.4-0.6-9.2
	c1.7-4.5,5.9,1.3,7.6,3.2c1.7,1.9,1.9,4.9,2.3,7.5c0.8,5.1,2.1,13.2,0.6,18.3c-1.3,4.3-6.8,5.2-10.6,6.3c-4.3,1.2-9,5.3-13.7,3.1
	c-4.7-2.3,0.2-12.8-3.9-16.8c3.5-0.8,6.6-3,9.8-4.5c1.2-0.5,2.7-0.7,3.8-1.3C53.4,216.8,55.5,214.2,55.9,211.7z"/>
<path fill="none" stroke="#000000" stroke-width="0.5275" stroke-miterlimit="10" d="M39.6,290c4.7,0,6.1-1.6,9.4-4.5
	c3.8-3.4,8.5-5.4,13.6-6.4c6.2-1.1,10.4-4.7,15.5-8.7c3.4-2.7,7.1-3.9,10.7-6.2c1.6-1.1,2.7-2,4-3.5c0.9-1,2-2.8,3.4-2.7"/>
<path fill="none" stroke="#000000" stroke-width="0.5275" stroke-miterlimit="10" d="M157.1,210.9c7.9,0,15-1.1,22.7-2.5"/>
<path fill="none" stroke="#000000" stroke-width="0.5275" stroke-miterlimit="10" d="M115.9,134.9c-2.5,0-5.2-1.1-7.6-0.9
	c-2.6,0.2-5.1,2.9-6.6,5.1c-1.3,1.9,0,3.1,2.2,1.9c2-1.1,1.9-4.3,4.8-4.2c1.9,0.1,2.6,1.9,4.8,1.6"/>
<path fill="none" stroke="#000000" stroke-width="0.5275" stroke-miterlimit="10" d="M115.7,240.4c4.9-0.2,6.7,3.4,10.6,5.6
	c4.4,2.4,7.8,7.5,10.7,11.5c2.5,3.4,3.4,8.1,5.2,11.8c0.7,1.4,0.9,2.6,1.4,4c0.3,0.8,0.9,1.2,1.1,2.1"/>
<path fill="none" stroke="#000000" stroke-width="0.5275" stroke-miterlimit="10" d="M136.7,220.9c3.4,1.5,6.1,4.4,9.1,6.7
	c3.4,2.6,6.8,5.4,9.7,8.6c2.2,2.4,3.6,5.4,5.6,7.9c1.2,1.5,1.8,2.9,2.6,4.6c0.9,1.8,1.6,4.7,1.4,6.9"/>
<path fill="none" stroke="#000000" stroke-width="0.5275" stroke-miterlimit="10" d="M183.6,220.5c2.4,1.1,5.1-0.2,7-1.1"/>
<path fill="none" stroke="#000000" stroke-width="0.5275" stroke-miterlimit="10" d="M51.6,281.9c-4-5.7-7.2-11.7-9.8-17.8
	c-1.8-4.1-4-8.4-4.6-12.8c-0.8-5.7,0.4-11.6-0.7-17.3c-1.5-7.9-4.6-15.4-4.6-23.9c0-5-1.1-13.5,1.4-17.5"/>
</svg>
